<svg width="160" height="160" xmlns="http://www.w3.org/2000/svg">
  <defs>
    <radialGradient id="bg" cx="50%" cy="50%" r="50%">
      <stop offset="0%" stop-color="#E63946"/>
      <stop offset="100%" stop-color="#C41E3A"/>
    </radialGradient>
    <filter id="shadow" x="-20%" y="-20%" width="140%" height="140%">
      <feDropShadow dx="0" dy="2" stdDeviation="4" flood-color="#C41E3A" flood-opacity="0.4"/>
    </filter>
  </defs>
  <!-- 外圈固定 -->
  <circle cx="80" cy="80" r="65" fill="url(#bg)" filter="url(#shadow)"/>
  <!-- 定位到圆心 -->
  <g transform="translate(80,80)">
    <!-- 旋转层 -->
    <g>
      <animateTransform attributeName="transform" type="rotate" from="0" to="360" dur="2s" repeatCount="indefinite"/>
      <!-- 太极符号：去掉白色底圆，红+白半圆+红圆 -->
      <path d="M0,-48 A48,48 0 0,1 0,48 A24,24 0 0,1 0,0 A24,24 0 0,0 0,-48 Z" fill="white"/>
      <path d="M0,-48 A48,48 0 0,0 0,48 A24,24 0 0,1 0,0 A24,24 0 0,1 0,-48 Z" fill="#C41E3A"/>
      <circle cx="0" cy="-24" r="8" fill="#C41E3A"/>
      <circle cx="0" cy="24" r="8" fill="white"/>
    </g>
  </g>
</svg>
